<?xml version="1.0" encoding="UTF-8"?><svg id="a" xmlns="http://www.w3.org/2000/svg" width="3in" height="2.31in" viewBox="0 0 216 166.58"><path d="M188.86,46.99c0-26.92,9.05-35.74,27.14-42.58V0h-59.35v4.41c18.09,6.84,27.14,15.66,27.14,42.58v78.99L58.25,5.96C52.51.66,50.97,0,47.22,0H0v4.41c10.37,1.1,16.55,3.97,31.55,18.53l5.74,5.52v90.02c0,26.92-9.05,35.74-27.14,42.58v4.41h59.35v-4.41c-18.09-6.84-27.14-15.66-27.14-42.58V32.65l142.09,133.92h4.41V46.99Z" fill="#db192b"/><path d="M102.16,139.68c1.35,1.16,2.24,1.94,2.9,2.52,1.4,1.23,1.73,1.52,3.35,2.75,1.54-.54,3.11-1.06,4.7-1.6l2.23-.75c2.27-.76,4.54-1.53,6.8-2.31l5.47-3.77.05.32c2.25-1.79,4.83-3.75,7.56-5.59,1.08-2,1.95-4.03,2.61-6.06.15-.45.36-.98.66-1.72,2.63-6.5,3.56-10.97,2.74-13.27-.83-2.37.29-4.37.98-5.51-.46-.94-.87-1.51-.88-1.52l-3.44-4.57,5.28-2.24c.07-.03,7.18-3.11,12.69-8.8,1.21-1.25,2.81-2.05,4.59-2.31,1.15-1.66,2.74-4.14,3.75-6.34.53-2.02.32-3.25.32-3.26l-.45-2.03,1.32-1.7c1.23-1.53,2.56-3.81,3.06-5.52-1.76-1.07-4.17-1.59-5.57-1.89-.48-.1-.87-.19-1.17-.27-2.66-.7-6.71-2.56-10.68-4.48l-3.67-1.76,1.4-3.82c.52-1.41.81-2.54.97-3.29-.34-.76-.92-1.87-1.77-3.14l-.06-.09-.3-.56-.04-.1c-.79-1.84-1.42-4.45-1.78-6.18-.86-.81-2.34-1.83-3.42-2.43l-2.41-1.34.11-2.76c.05-1.11.13-2.16.2-3.09.27-3.55.51-6.68-.95-12.97-1.34,1.22-2.68,3.04-3.53,4.19-1.14,1.54-1.89,2.56-3.01,3.27-1.79,1.13-3.49,2.62-3.56,2.68l-1.83,1.62-2.36-.67-2.03-.58c-3.11-.9-4.53-1.31-6.02-1.31-.74,0-1.6.1-2.87.32l-3.81.67-1.22-3.67c-3.87-11.62-8.27-17.96-11.4-19.67-3.29,5.72-4.94,10.34-7,17.42l-.15.5-.26.46c-.4.7-.76,1.32-1.1,1.91-2.58,4.45-3.54,6.1-6.72,18.68l-.32,1.25-.93.89c-.07.07-7.44,7.22-11,14.34-1.16,2.32-2.51,5.15-4.02,8.44.07,5.27-.95,10.31-1.93,15.19-.38,1.87-.76,3.79-1.07,5.64-.62,3.78-1.06,7.93-1.36,13.02,6.44,15.73,12.66,23.2,33.07,39.08.12-.33.25-.63.39-.89l2.61-5.03,4.29,3.7Z" fill="#c4aa84"/><path d="M98.55,139.53l2.15,1.85c1.37,1.18,2.27,1.97,2.94,2.55,1.63,1.43,1.83,1.6,4.38,3.53,1.91-.67,3.84-1.32,5.81-1.99l1.95-.66c2.46-.83,4.93-1.66,7.38-2.5l2.79-1.92.1.65c3.2-2.64,6.91-5.59,10.87-8.23,1.26-2.27,2.29-4.6,3.04-6.92.12-.37.32-.87.6-1.57,1.17-2.89,4.29-10.58,2.78-14.86-.52-1.47.29-2.79.88-3.76.15-.25.39-.63.5-.87-.71-1.81-1.57-2.97-1.58-2.99l-1.73-2.3,2.64-1.12c.07-.03,7.54-3.23,13.42-9.3,1.24-1.28,2.86-1.71,4.21-1.72,1.15-1.62,3.36-4.88,4.63-7.73.76-2.75.41-4.43.41-4.45l-.23-1.06.68-.87c1.46-1.8,3.61-5.35,3.73-7.86-2.17-1.95-5.62-2.69-7.54-3.11-.43-.09-.8-.17-1.07-.25-2.47-.65-6.4-2.46-10.28-4.33l-1.83-.88.7-1.91c.75-2.05,1.07-3.59,1.2-4.31-.3-.74-1-2.3-2.24-4.14l-.2-.37c-.84-1.97-1.53-5.12-1.78-6.39-1.04-1.19-3.18-2.62-4.39-3.29l-1.21-.67.06-1.38c.04-1.05.12-2.03.19-3.01.31-4.07.6-7.93-1.73-16.56-2.63.65-5.17,4.1-6.79,6.28-1.03,1.39-1.64,2.22-2.41,2.71-1.99,1.26-3.83,2.88-3.85,2.89l-.92.81-1.18-.34c-.74-.21-1.41-.4-2.03-.58-4.96-1.43-5.99-1.73-9.9-1.04l-1.9.33-.61-1.83c-4.31-12.94-9.79-21.03-14.55-21.65-4.02,6.63-5.87,11.68-8.13,19.47l-.07.25-.13.23c-.4.71-.77,1.35-1.12,1.94-2.67,4.6-3.67,6.32-6.93,19.2l-.16.62-.46.45c-.08.07-7.68,7.41-11.45,14.95-1.23,2.46-2.67,5.48-4.27,8.97.14,5.21-.88,10.3-1.87,15.22-.38,1.88-.77,3.82-1.08,5.72-.66,3.98-1.11,8.37-1.42,13.77,6.88,16.96,13.45,24.73,36.7,42.59.25-1.62.61-2.97,1.01-3.75l1.31-2.51ZM129.17,20.01s0,0,0,0c0,0,0,0,0,0Z" fill="#c4aa84"/><path d="M173.1,64.46c-3.03-3.39-8.54-4.11-10.25-4.56-2.38-.63-6.58-2.59-9.88-4.18,1.2-3.27,1.39-5.34,1.39-5.34,0,0-.74-2.26-2.69-5.14-.97-2.26-1.75-6.47-1.75-6.47-1.52-2.14-5.4-4.29-5.4-4.29.24-5.87,1.47-9.58-2.09-21.95-5.98-.94-10.52,8.39-12.08,9.38-2.17,1.37-4.14,3.11-4.14,3.11-6.8-1.93-7.97-2.55-12.93-1.68C108.76,9.72,102.31-.56,95.38.16c-4.78,7.65-6.77,13.3-9.03,21.09-3.59,6.32-4.51,6.86-8.27,21.7,0,0-7.91,7.57-11.9,15.57-1.42,2.84-2.98,6.15-4.52,9.52.3,7.09-1.75,14.03-2.91,21.03-.79,4.81-1.2,9.65-1.47,14.5,7.3,18.16,14.12,26.19,40.83,46.46.1-3.28.65-6.03,1.14-6.96,5.18,4.46,3.56,3.25,8.39,6.89,2.29-.82,4.6-1.6,6.92-2.38,3.21-1.08,6.43-2.16,9.63-3.26.03-.02.07-.05.1-.07,0,0,0,.02,0,.03.08-.03.16-.05.24-.08.73-.25,1.45-.52,2.17-.79,3.84-3.19,7.75-6.3,11.92-9.04,1.38-2.4,2.58-5,3.49-7.8.61-1.89,5.49-11.86,3.37-17.87-.36-1.02,1.99-2.95,1.47-4.36-.86-2.36-2.01-3.86-2.01-3.86,0,0,7.87-3.31,14.16-9.81,1.2-1.24,3-1.12,3.64-.9,0,0,3.82-5.05,5.71-9.35,1.02-3.55.47-5.73.47-5.73,0,0,4.74-5.83,4.19-10.24" fill="#020202"/><path d="M143.62,111.09c1.71,7.15-3.09,15.07-8.74,21.08.13-1.9.07-3.53-.21-4.85-4.59,5.36-14.52,11.99-20.98,14.16-9.07-5.68-12.66-7.48-22.22-16.27-.46,2.01-.68,4.11-.7,6.27-19.09-18.09-18.96-21.4-22.6-31.55,6.04,8.25,10.93,12.97,19.03,18.03.08-1.34.3-2.64.73-3.86,6.59,5.03,11.98,7.45,18.1,10.34-7.17-8-12.51-14.74-19.36-24.02-.46,1.21-.7,2.49-.77,4.3-2.32-2.04-4.2-4.9-5.66-8.29-.78.84-1.47,1.81-2.03,2.93-3.54-7.63-3.64-9.85,1.24-17.12.79,3.83,2.05,6.39,3.72,7.77.22-.72.52-1.36.9-1.92,2.93,3.65,7.72,8.31,11.21,9.84,1.9.84,8.2.66,10.19-.72-8.49-4.77-11.59-6.47-18.02-20.9,3.27,1.38,6.07,2.24,8.34,2.53-3.41-2.86-6.26-6.12-8.35-9.92,0,0,7.02-1.24,8.82-3.19.44-.48-.55-1.77-.79-2.21,3.97-1.6,7.69-3.56,9.6-5.3.7-.64,3.12-.98,4.6-.76,2.38,1.65,3.27,4.58,5.35,5.99,1.26.86,4.06.63,5.66.13,2.53-.78,4.9-2.44,4.9-2.44-3.18-.03-5.72-.97-7.56-2.45-2.56-2.06-4.75-5.05-6.73-6.33.78-1.13,2.15-1.97,2.15-1.97,0,0-2.16-.7-3.28-1.84,4.18-2.68,4.88-5.58,6.27-6.38,1.36-.78,3.39-.38,3.39-.38,0-1.35-.8-2.42-.8-2.42,3.55-9.54,6.56-4.61,8.73-6.73,5.83,3.2,8.77,6.55,11.65,14.11-.77-7.05-1.95-9.66-3.93-13.29,4.41,3.3,5.8,5.51,7.55,13.61.44-6.6,1.77-8.51,1.77-8.51,1.44.6,2.85,1.84,2.95,2.53.29,1.89.69,4.83.69,4.83,1.95,3.15,2.54,4.56,2.6,4.87-.25.74-.54,1.91-.98,1.89-.88-.03-1.44-1.48-1.44-1.48-.77.89-.94,2.01-1.52,2.04-1.45.08-2.53-1.45-2.53-1.45.52,1.73.97,3.35,2.72,4.34,1.74.98,7.51,4.22,12.04,5.81-.64.18-1.35.45-2.25.97-.32,1.69-.58,3.45-.47,5.01.04.59,3.39,2.8,4.73,7.17.18.59,1.42,1.58,2.13,1.89.95-.28,1.94-1.02,1.94-1.02,0,1.78-.36,3.26-.36,3.26,0,0-1.11,2.92-3.11,4.44-.7-.94-.93-1.43-1.43-1.84-1.36-.03-11.27,5.52-21.53,2.82-6.27-1.65-12.94-5.74-17.44-2.72,6.53.62,13.39,5.67,17.67,6.4,6.94,1.19,8.91-.24,13.11-.63,2.2-.2,3.36.46,3.23,1.01-.35,1.47-9.56,8.02-17.54,6.27-3.26-3.06-10.24-5-15.08-4.91-3.5.25-7.41,2.89-7.41,2.89,5.7.5,7.95,1.65,12.61,6.84-2.04,0-3.53.33-5.13,1.53,7.2,4.74,5.96,14.71,3.1,23.85,3.69-1.26,8.94-5.08,10.92-7.51.21,1.05.3,2.5.21,3.69,1.1-1.02,4.4-4.82,6.41-10.26" fill="#fff"/><path d="M140.25,51.26c-.04.91-.41,2.05-1.34,3.44,0,0,.57,3.47-1.59,7.02-2.57-4.37-5.64-6.07-5.64-6.07-2.18.88-4.75,1.15-6.36.79-1.61-.36-5.98-5.44-8.17-5.93,2.7-2.44,6.14-3.23,8.01-3.3,0-.74-.62-2.49-.62-2.49,4.46.57,7.26,5.89,9.67,6.75,2.26.8,6.04-.22,6.04-.22" fill="#020202"/><path d="M130.02,52.89l-4.14.37s-1.18-.64-1.95-2.04c1.19-1.05,3.07-.89,3.22-.89,1.19.95,2.87,2.56,2.87,2.56" fill="#fff"/><path d="M110.27,30.19c-1.6-16.69-9.69-25.17-12.59-25.25-7.21,10.48-9.01,23.76-7.97,33.14-1.83-1.04-3.98-3.19-3.98-3.19.72,3.66.56,8.76.56,8.76-6.93,4.46-10.44,11.79-11.87,15.61,3.98-4.86,10.28-9.4,16.01-10.67,1.11-1.43.96-3.82.96-3.82,2.15.08,3.03-1.12,3.03-1.12-4.7-13.46,1.19-28.2,3.58-30.75,3.98.64,6.45,5.02,6.13,8.52-1.35-1.67-3.82-1.11-3.82-1.11,1.19,4.14-.56,8.44-1.59,11.71.16,1.59,1.59,3.43,1.59,3.43-2.07,0-2.87,2.15-2.87,2.15,1.91.08,2.79.88,3.19,1.83,4.62-3.19,6.85-7.57,7.09-9.32,1.42.64,2.55.08,2.55.08" fill="#fff"/><path d="M132.62,28.28c1.25-5.58,4.84-12.42,8.03-12.13,1.71,5.13,2.08,8.45,1.08,15.07-1-7.68-2.66-7.7-2.03-10.99-3.18,1.64-3.37,2.81-3.37,6.91.8-1.31,2.22-1.59,2.22-1.59-.68,3.25.68,6.55.68,6.55-2.85-2.16-6.61-3.82-6.61-3.82" fill="#fff"/><path d="M167.86,69.63s2.67-3,2.16-5.35c-2.61-2.41-7.02-.61-9.31.93,1.3.6,3.11.79,3.11.79,3.48-.59,4.37.63,4.37.63.15,1.33-.33,3-.33,3" fill="#fff"/></svg>