<?xml version="1.0" encoding="UTF-8" standalone="no"?>
<!-- Created with Inkscape (http://www.inkscape.org/) -->

<svg
   version="1.1"
   id="svg1"
   width="2586.6667"
   height="1214.4133"
   viewBox="0 0 2586.6667 1214.4133"
   sodipodi:docname="PrimaryLogo.eps"
   xmlns:inkscape="http://www.inkscape.org/namespaces/inkscape"
   xmlns:sodipodi="http://sodipodi.sourceforge.net/DTD/sodipodi-0.dtd"
   xmlns="http://www.w3.org/2000/svg"
   xmlns:svg="http://www.w3.org/2000/svg">
  <defs
     id="defs1" />
  <sodipodi:namedview
     id="namedview1"
     pagecolor="#ffffff"
     bordercolor="#000000"
     borderopacity="0.25"
     inkscape:showpageshadow="2"
     inkscape:pageopacity="0.0"
     inkscape:pagecheckerboard="0"
     inkscape:deskcolor="#d1d1d1">
    <inkscape:page
       x="0"
       y="0"
       inkscape:label="1"
       id="page1"
       width="2586.6667"
       height="1214.4133"
       margin="0"
       bleed="0" />
  </sodipodi:namedview>
  <g
     id="g1"
     inkscape:groupmode="layer"
     inkscape:label="1">
    <g
       id="group-R5">
      <path
         id="path2"
         d="m 9705.19,2293.09 c 0.51,-0.19 0.96,-0.32 1.47,-0.51 -0.77,-1.03 -1.7,-2.06 -2.44,-3.08 z m 9244.91,1801.94 c -42.4,519.42 -226.5,1002.24 -506.8,1343.64 -1.4,74.11 -3.2,166.34 -3.2,166.34 -34.4,422.38 -212.5,1051.05 -865.8,1648.37 C 15623.8,9036.48 10017,9088.7 6867.5,8230.7 7553.06,8036.24 8138.7,7776.85 8192.51,7757 6899.93,7589.9 4970.91,7094.11 2937.57,5694.79 c 0,0 -757.88,-564.77 -1159.3,-1415.38 940.53,621.92 2022.24,835.84 2291.52,861.22 C 3728.55,4720.48 3325.49,4106.5 2973.31,3253.59 H 1086.51 L 688.148,1766.86 C 539.094,1210.71 517.48,1066.85 668.398,820.242 851.238,520.402 1243.18,426.371 1579.16,426.371 H 16111.3 l 282.1,1026.969 h -380.1 l 308.3,1150.58 c 274.8,150.35 541,323.55 795.2,522.64 69.6,-59.21 161.8,-129.53 272,-195.69 0.9,-155.86 -9.2,-443.25 -83.2,-719.98 l -249.3,-931.15 808.8,524.56 c 686.4,445.19 942.6,1063.38 1036.7,1503.56 54,252.52 70.3,517.36 48.3,787.17"
         style="fill:#1a64b7;fill-opacity:1;fill-rule:nonzero;stroke:none"
         transform="matrix(0.13333333,0,0,-0.13333333,0,1214.4133)" />
      <path
         id="path3"
         d="m 14812.8,5230.6 c 322.2,-184.9 726.8,25.04 911.3,143.27 -56,36.03 -121.4,76.62 -195.5,119.71 0.4,0.26 0.6,0.45 0.7,0.71 -20.4,-15.03 -42.5,-28.96 -67.1,-39.05 -163,-66.47 -348.6,11.95 -415.2,174.81 -21,52.15 -26,105.84 -19.6,157.6 -1.2,-10.73 -3.2,-21.32 -3.2,-32.37 -196.8,90.04 -417.9,178.41 -659.3,253.04 6.9,-282.32 166.8,-616.27 447.9,-777.72"
         style="fill:#ffffff;fill-opacity:1;fill-rule:nonzero;stroke:none"
         transform="matrix(0.13333333,0,0,-0.13333333,0,1214.4133)" />
      <path
         id="path4"
         d="m 15411,5646.05 c 32,12.84 54.1,39.49 63.6,69.93 -58.9,40.27 -117.8,78.55 -177.2,115.02 -34.4,-30.37 -48.1,-79.63 -30.1,-124.33 22.9,-56.26 87.4,-83.88 143.7,-60.62"
         style="fill:#ffffff;fill-opacity:1;fill-rule:nonzero;stroke:none"
         transform="matrix(0.13333333,0,0,-0.13333333,0,1214.4133)" />
      <path
         id="path5"
         d="m 12501.2,4401.89 c 33.9,-84.9 80,-166.21 140.9,-239.87 176.6,-213.68 408,-344.63 675.3,-419.96 -68.9,213.08 -114,409.36 -141.1,587.12 -280.4,15.48 -508.8,36.1 -675.1,72.71"
         style="fill:#ffffff;fill-opacity:1;fill-rule:nonzero;stroke:none"
         transform="matrix(0.13333333,0,0,-0.13333333,0,1214.4133)" />
      <path
         id="path6"
         d="m 16966.7,3864.78 c -260.4,101.99 -554.8,178.86 -866.7,237.06 22.9,-75.41 51.8,-154.85 88,-236.61 276.7,21.9 540,27.04 778.7,-0.45"
         style="fill:#ffffff;fill-opacity:1;fill-rule:nonzero;stroke:none"
         transform="matrix(0.13333333,0,0,-0.13333333,0,1214.4133)" />
      <path
         id="path7"
         d="m 15876.7,4309.09 c -15.3,81.62 -23.3,150.92 -27.7,205.18 -404,47.33 -834.1,71.61 -1222.2,101.54 0.4,-60.7 3.6,-122.09 11.1,-183.74 408.2,-24.09 832.2,-60.37 1238.8,-122.98"
         style="fill:#ffffff;fill-opacity:1;fill-rule:nonzero;stroke:none"
         transform="matrix(0.13333333,0,0,-0.13333333,0,1214.4133)" />
      <path
         id="path8"
         d="m 14839.3,3706.54 c 391.7,43.99 791.8,104.88 1173,142.9 -41.7,99.79 -72.7,195.74 -96.2,284.45 -406.7,65.82 -835.7,103.65 -1250,128.57 43.6,-212.91 114.8,-412.51 173.2,-555.92"
         style="fill:#ffffff;fill-opacity:1;fill-rule:nonzero;stroke:none"
         transform="matrix(0.13333333,0,0,-0.13333333,0,1214.4133)" />
      <path
         id="path9"
         d="m 14665,3688.5 c -61.4,155.99 -131.2,363.04 -171.9,583.98 -249.8,13.16 -492.1,22.53 -718.7,31.08 -151.1,5.85 -292.9,11.44 -425.6,17.28 30.1,-186.95 80.9,-395.17 160.5,-622.07 348.3,-62.61 744.4,-50.02 1155.7,-10.27"
         style="fill:#ffffff;fill-opacity:1;fill-rule:nonzero;stroke:none"
         transform="matrix(0.13333333,0,0,-0.13333333,0,1214.4133)" />
      <path
         id="path10"
         d="m 13171.6,5176.65 c -0.5,-1.67 -0.7,-3.09 -1,-4.75 -171.1,138.33 -380.4,164.21 -533.9,159.33 -163.5,-171.53 -238.5,-460.66 -188.5,-742.14 142.8,-47.07 395,-72.32 706.8,-90.3 -27.7,281.23 -11.3,508.44 16.6,677.86"
         style="fill:#ffffff;fill-opacity:1;fill-rule:nonzero;stroke:none"
         transform="matrix(0.13333333,0,0,-0.13333333,0,1214.4133)" />
      <path
         id="path11"
         d="m 14458.6,4629.81 c -562.3,48.54 -1007.1,119.45 -1102.6,308.13 -4.5,8.86 -18.9,35 -35.4,64.35 -12.7,-141.16 -15.2,-312.25 5.8,-512.55 143.2,-6.75 296.3,-12.59 454.3,-18.75 217.3,-8.23 448.7,-17.09 687.4,-29.61 -12.3,117.08 -9.5,188.43 -9.5,188.43"
         style="fill:#ffffff;fill-opacity:1;fill-rule:nonzero;stroke:none"
         transform="matrix(0.13333333,0,0,-0.13333333,0,1214.4133)" />
      <path
         id="path12"
         d="m 16019.1,4496.42 c 6.2,-58.51 16.5,-131.91 34.7,-216.3 466.6,-82.2 902.4,-203.13 1254.9,-386.05 -312.9,326.97 -779.5,490.86 -1289.6,602.35"
         style="fill:#ffffff;fill-opacity:1;fill-rule:nonzero;stroke:none"
         transform="matrix(0.13333333,0,0,-0.13333333,0,1214.4133)" />
      <path
         id="path13"
         d="m 17184.5,4773.6 c 31,-55.43 24.6,-227.6 134.1,-225.62 109.5,2.19 278.2,87.73 278.2,87.73 0,0 -350.9,98.32 -460.3,315.27 -37.3,-21.97 -75.4,-41.75 -112.5,-57.87 24.2,-17.79 46.9,-42.26 47.9,-72.18 1.8,-66.98 81.5,7.9 112.6,-47.33"
         style="fill:#d11c2e;fill-opacity:1;fill-rule:nonzero;stroke:none"
         transform="matrix(0.13333333,0,0,-0.13333333,0,1214.4133)" />
      <path
         id="path14"
         d="m 17399.7,5140.94 c 0,0 -80.5,-69.68 -184.6,-139.87 87.1,-98.13 294,-307.56 428.9,-252.58 174.8,71.09 82.3,194.52 -244.3,392.45"
         style="fill:#d11c2e;fill-opacity:1;fill-rule:nonzero;stroke:none"
         transform="matrix(0.13333333,0,0,-0.13333333,0,1214.4133)" />
      <path
         id="path15"
         d="m 15849,4514.27 c -0.6,5.91 -1.6,12.27 -1.7,17.79 -405.2,79.44 -828,135.25 -1215.5,220.22 -4.6,-44.7 -6.2,-90.11 -5.9,-136.28 0.2,-0.07 0.4,-0.19 0.9,-0.19 388.1,-29.93 818.2,-54.21 1222.2,-101.54"
         style="fill:#ffffff;fill-opacity:1;fill-rule:nonzero;stroke:none"
         transform="matrix(0.13333333,0,0,-0.13333333,0,1214.4133)" />
      <path
         id="path16"
         d="m 15724.1,5373.87 v 0 c 0.4,0.26 0.8,0.52 1.2,0.84 61.9,39.82 98.6,68.85 98.6,68.85 -63.3,57.47 -130,111.74 -198.5,163.89 -10.6,-20.87 -23.8,-40.33 -38.8,-58.51 -2.3,-2.69 -4.9,-5.33 -7.4,-8.22 -15,-16.96 -31.4,-32.75 -49.9,-46.43 -0.1,-0.26 -0.3,-0.45 -0.7,-0.71 74.1,-43.09 139.5,-83.68 195.5,-119.71"
         style="fill:#ffffff;fill-opacity:1;fill-rule:nonzero;stroke:none"
         transform="matrix(0.13333333,0,0,-0.13333333,0,1214.4133)" />
      <path
         id="path17"
         d="m 15027.4,5787.65 c 0.8,5.07 0.9,10.41 1.7,15.35 4.1,23.25 11.3,45.41 20.3,66.92 2.1,5.78 4.8,11.43 7.4,16.89 10.9,21.9 22.9,43.03 38.2,62.17 -274.5,152.01 -528.5,261.25 -682.4,322.2 -17.4,-37.44 -29.9,-78.74 -37.8,-122.73 -1.4,-7 -0.7,-14.84 -1.8,-21.97 -5.4,-37.75 -9.3,-76.23 -8.3,-116.68 -0.1,-0.52 -0.2,-0.78 -0.2,-1.29 0.2,-0.06 0.2,-0.06 0.4,-0.19 241.4,-74.63 462.5,-163 659.3,-253.04 0,11.05 2,21.64 3.2,32.37"
         style="fill:#ffffff;fill-opacity:1;fill-rule:nonzero;stroke:none"
         transform="matrix(0.13333333,0,0,-0.13333333,0,1214.4133)" />
      <path
         id="path18"
         d="m 14458.6,4629.81 c -562.3,48.54 -1007.1,119.45 -1102.6,308.13 -4.5,8.86 -18.9,35 -35.4,64.35 0,0 21,226.19 61.9,345.83 0,0 321.2,-376.14 1085.5,-557.12 l -9.4,-161.19"
         style="fill:#ffffff;fill-opacity:1;fill-rule:nonzero;stroke:none"
         transform="matrix(0.13333333,0,0,-0.13333333,0,1214.4133)" />
      <path
         id="path19"
         d="m 12636.7,5331.23 c 153.5,4.88 362.8,-21 533.9,-159.33 0,0 29.9,153.3 60.8,259.26 0,0 -341.6,160.3 -594.7,-99.93"
         style="fill:#ffffff;fill-opacity:1;fill-rule:nonzero;stroke:none"
         transform="matrix(0.13333333,0,0,-0.13333333,0,1214.4133)" />
      <path
         id="path20"
         d="M 17326.9,5893.62 C 15718,8776.52 9903.18,7999.5 9880.93,7995.97 10342.8,7839.08 11002.1,7279.06 11002.1,7279.06 7404.33,7345.08 4725.46,5869.34 4725.46,5869.34 c 1102.74,173.21 2334,189.9 3209.01,170.64 C 5922.68,5193.8 4839,3558.45 4839,3558.45 7006.86,4951.94 8962.79,5263.6 9872.73,5329.82 c 0,0 -1869.09,-640.8 -2645.49,-2091.84 0,0 1835.61,605.36 3279.46,291.5 1187.4,-996.19 3704.2,-1042.11 5521.3,-40.58 -565.9,15.86 -1241.4,-148.87 -1720.5,-149.9 -2431.5,-4.88 -2666.1,1742.28 -1884.6,2213.67 736.7,444.47 1458,-357.65 1925.5,-513.97 -384.9,373 -355.4,974.69 -355.4,974.69 -1063.7,589.3 -2591,734.12 -3243.7,769.63 -27.9,84 -250.7,245.52 -250.7,245.52 3630.7,265.94 5687.9,-1305.23 5687.9,-1305.23 264.9,167.03 -17.9,511.96 -17.9,511.96 163.7,-94.46 283.4,-417.12 283.4,-417.12 120.6,75.53 73.5,241.67 73.5,241.67 319.1,-754.47 -541.6,-749.59 -541.6,-749.59 -162.6,-248.28 -687.3,-507.8 -687.3,-507.8 l 942.6,-160.68 c 0,0 1413.3,668.54 1087.7,1251.87"
         style="fill:#d11c2e;fill-opacity:1;fill-rule:nonzero;stroke:none"
         transform="matrix(0.13333333,0,0,-0.13333333,0,1214.4133)" />
      <path
         id="path21"
         d="m 8206.74,2207.1 c -69.45,227.41 -355.4,311.54 -634.22,311.54 -237.17,0 -486.99,-60.37 -647.45,-223.75 -102.34,151.37 -327.56,223.75 -592.15,223.75 -272.43,0 -544.66,-80.67 -691.34,-274.23 l 20.61,242.64 H 2964.96 l 160.48,598.92 H 1215.12 L 850.02,1723.38 C 705.969,1185.72 698.809,1091.64 811.449,907.582 c 123.602,-202.75 409.381,-313.59 767.711,-313.59 267.76,0 496.97,59.02 682.92,178.34 l -47.81,-178.281 h 3287.3 l 6.36,75.269 c 78.26,-48.16 211.32,-106.808 449.04,-106.808 261.32,0 521.09,83.051 660.52,223.121 105.64,-143.602 312.62,-223.121 579.08,-223.121 601.5,0 765.07,306.668 833.14,560.528 86.06,321.3 -1.86,456.36 -51.63,518.4 h 0.51 150.02 l 54.79,204.23 c 43.22,161.32 50.41,272.68 23.34,361.43"
         style="fill:#d11c2e;fill-opacity:1;fill-rule:nonzero;stroke:none"
         transform="matrix(0.13333333,0,0,-0.13333333,0,1214.4133)" />
      <path
         id="path22"
         d="m 15794.9,1285.72 321.9,1201.33 h -885.3 l -321.9,-1201.33 h -131.3 l 321.8,1201.33 h -4041.2 l -12,-95.82 c -102.4,76.23 -254.6,127.41 -465.7,127.41 -265.1,0 -666.3,-95.05 -813.02,-455.27 -28.83,-70.84 -63.77,-183.22 -106.79,-343.77 l -83.88,-313.98 h -283.6 l 450.45,1681.12 H 8667.24 L 7999.27,593.992 h 1609.27 l 37.3,139.301 c 122.89,-121.703 310.94,-170.781 515.96,-170.781 355.3,0 569,135.781 689.5,264.597 L 10822,594.051 h 5167 l 185.3,691.669 h -379.4"
         style="fill:#d11c2e;fill-opacity:1;fill-rule:nonzero;stroke:none"
         transform="matrix(0.13333333,0,0,-0.13333333,0,1214.4133)" />
      <path
         id="path23"
         d="m 8099.84,2174.54 c -47.27,155.04 -267.03,232.35 -527.32,232.35 -214.24,0 -439.05,-54 -573.56,-195.94 -60.69,-64.09 -107.12,-158.37 -141.93,-288.29 -48.55,-180.91 -15.48,-316.99 73.28,-400.1 28.16,-26.39 78.15,-62.99 151.88,-111.1 h -369.47 c -4.46,47.72 -16.4,89.01 -36.34,123.89 -36.93,64.54 -118.05,134.93 -251.62,217.84 h 378.55 l 32.56,121.43 c 36.96,137.95 44.67,233.26 24.37,299.92 -38.47,126.2 -211.32,232.35 -527.32,232.35 -122.63,0 -233.99,-16.63 -331,-49.44 -208.84,-70.72 -317.09,-183.49 -384.52,-434.79 -69.62,-259.96 16.66,-390.91 225.22,-511.2 h -347.34 l -53.76,-203.45 99.04,1167.29 H 4699.25 L 4073.67,922.223 4463.02,2375.3 h -791.11 l -110.27,-259.9 23.57,259.9 h -765.84 l 160.49,598.92 H 1300.85 L 957.945,1694.49 C 894.105,1456.1 858.43,1302.87 848.926,1226.19 813.414,939.762 1058.96,705.742 1579.16,705.742 c 456.96,0 799.36,200.231 914.22,498.088 L 2359.93,705.742 h 593.4 l 31.41,117.188 -10.47,-117.188 h 1689.21 l 100.83,269.981 h 14 l -48.39,-269.981 h 668.97 l 22.22,261.879 c 25.78,-177.75 228.68,-293.359 535.86,-293.359 74.82,0 556.74,-20.289 701.94,401.708 -4.05,-46.63 -2.83,-87.599 4.01,-123.111 33.53,-175 247.67,-278.597 533.65,-278.597 126.07,0 243.72,18.89 349.75,56.191 220.47,77.719 310.83,180.149 375.41,421.487 45.82,170.96 43.95,296.32 -5.69,383.41 -36.92,64.54 -118.1,134.93 -251.68,217.84 h 378.52 l 32.59,121.43 c 36.93,137.95 44.67,233.26 24.37,299.92"
         style="fill:#1a64b7;fill-opacity:1;fill-rule:nonzero;stroke:none"
         transform="matrix(0.13333333,0,0,-0.13333333,0,1214.4133)" />
      <path
         id="path24"
         d="m 13557.3,1173.97 43.5,162.61 h 334.9 l 121.4,453.34 h -334.8 l 31.4,117.2 h 421.5 l -196.5,-733.15 z m 2091.9,0 322,1201.33 h -653.9 l -322,-1201.33 h -362.6 l 321.8,1201.33 h -2340.7 l -133.8,-307.04 43.3,307.04 h -648.4 l -129.7,-302.55 52.7,302.55 h -640.4 l -38.9,-311.54 c -25.9,236.33 -254.2,343.13 -537.4,343.13 -250.8,0 -588.89,-89.33 -709.52,-385.71 -27.07,-66.47 -60.56,-174.55 -102.3,-330.48 L 9664.63,1293.87 H 9148.26 L 9598.71,2975 H 8752.97 L 8144.86,705.742 h 1377.9 l 100.99,376.838 c -12.84,-160.158 85.67,-408.318 538.05,-408.318 370,0 622.4,171.668 709.6,385.658 79.5,195.29 178.6,601.56 218.6,775.53 L 10948.6,705.742 h 746.3 l 153.5,347.048 -16,-347.048 h 742.8 l 585.1,1426.928 -382.4,-1426.928 h 3125.3 l 125.5,468.228 h -379.5"
         style="fill:#1a64b7;fill-opacity:1;fill-rule:nonzero;stroke:none"
         transform="matrix(0.13333333,0,0,-0.13333333,0,1214.4133)" />
      <path
         id="path25"
         d="m 2212.48,2890.42 h 658.17 l -368.5,-1375.24 c -41.78,-155.93 -77.36,-265.43 -106.77,-328.55 -135.67,-290.677 -507.67,-397.079 -816.22,-397.079 -412.6,0 -680.176,159.39 -647.066,426.299 8.992,72.5 44.636,224.77 106.796,456.93 l 326.31,1217.64 h 658.14 L 1609.88,1347.44 c -47.78,-178.35 -37.53,-209.75 34.5,-209.75 90.45,0 112.06,50.54 161.8,236.4 l 406.3,1516.33"
         style="fill:#ffffff;fill-opacity:1;fill-rule:nonzero;stroke:none"
         transform="matrix(0.13333333,0,0,-0.13333333,0,1214.4133)" />
      <path
         id="path26"
         d="m 3727.39,2291.49 h 626.45 L 3951.37,789.551 H 3531.46 L 3803.17,1803.53 3363.77,789.551 h -297.86 l 88.63,990.799 -265.49,-990.799 h -419.91 l 402.44,1501.939 h 621.86 l -63.58,-701.23 297.53,701.23"
         style="fill:#ffffff;fill-opacity:1;fill-rule:nonzero;stroke:none"
         transform="matrix(0.13333333,0,0,-0.13333333,0,1214.4133)" />
      <path
         id="path27"
         d="m 4107.77,789.551 h 497.53 l 100.86,269.979 h 172.27 l -48.36,-269.979 h 491.81 l 127.48,1501.939 h -694.94 z m 924.09,1166.129 -95.75,-629.95 H 4771.8 Z"
         style="fill:#ffffff;fill-opacity:1;fill-rule:nonzero;stroke:none"
         transform="matrix(0.13333333,0,0,-0.13333333,0,1214.4133)" />
      <path
         id="path28"
         d="M 7994.52,1896.33 7978.59,1837 h -446.14 l 29.83,111.29 c 23.56,87.98 21.45,120.54 -41.84,120.54 -50.45,0 -95.72,-29.16 -118.94,-115.91 -30.19,-112.4 -10.05,-140.97 105.97,-205.06 186.05,-103.27 297.98,-187.98 335.81,-254.19 37.79,-66.16 36.99,-172.88 -2.47,-320.02 C 7812.16,1066.6 7775.59,987.73 7731.21,937.063 7629.1,820.371 7397,758.07 7196.57,758.07 c -269.41,0 -429.23,94.922 -451.38,210.52 -11.72,61.27 -2.5,148.16 27.65,260.67 l 26.33,98.39 h 446.17 l -49,-182.77 c -25.2,-94.28 -25.4,-132.68 50.1,-132.68 62.96,0 105.51,40.2 127.25,121.57 23.7,88.36 24.38,146.23 1.93,173.46 -23.12,27.17 -85.86,72.64 -188.24,136.41 -152.01,95.55 -329.2,159.71 -249.43,457.32 30.82,115.01 71.42,199.14 121.83,252.33 112.77,119.06 312.24,169.79 512.74,169.79 322.39,0 428.2,-110.84 447.17,-173.01 15.19,-49.83 6.78,-134.41 -25.17,-253.74"
         style="fill:#ffffff;fill-opacity:1;fill-rule:nonzero;stroke:none"
         transform="matrix(0.13333333,0,0,-0.13333333,0,1214.4133)" />
      <path
         id="path29"
         d="M 8817.26,2891.19 H 9489.5 L 9039.05,1210.06 h 532.1 L 9458.51,789.551 h -1204.4 l 563.15,2101.639"
         style="fill:#ffffff;fill-opacity:1;fill-rule:nonzero;stroke:none"
         transform="matrix(0.13333333,0,0,-0.13333333,0,1214.4133)" />
      <path
         id="path30"
         d="m 11035,1993.7 c 24.2,201.2 -153.6,329.38 -453.8,329.38 -182.8,0 -518.4,-55.15 -631.94,-333.49 -25.6,-62.82 -167.84,-577.54 -167.84,-577.54 -41.4,-154.65 -65.83,-262.87 -73.25,-324.58 -27.23,-225.49 184.8,-329.4 453.63,-329.4 256.9,0 535.5,96.59 632,333.51 25.5,62.74 58.6,169.54 99.1,320.47 l 68.8,256.94 c 41.4,154.65 65.8,262.86 73.3,324.71 z m -806.2,-981.5 c -60.4,0 -68.4,21.77 -22.6,192.01 l 187.9,701.37 c 39.7,148.61 66,163.25 121.3,163.25 68.7,0 60.3,-47.58 29.3,-163.25 l -184.9,-690.18 c -42.1,-156.64 -58.8,-203.2 -131,-203.2"
         style="fill:#ffffff;fill-opacity:1;fill-rule:nonzero;stroke:none"
         transform="matrix(0.13333333,0,0,-0.13333333,0,1214.4133)" />
      <path
         id="path31"
         d="m 12668.2,2291.49 h 466.6 L 12519,789.551 h -600.2 l 65.8,786.769 -344.2,-786.769 h -596.9 l 188,1501.939 h 466.7 l -176.7,-1029.73 408.4,1029.73 h 499.7 L 12249,1225.6 c 0,0 263.6,718.32 419.2,1065.89"
         style="fill:#ffffff;fill-opacity:1;fill-rule:nonzero;stroke:none"
         transform="matrix(0.13333333,0,0,-0.13333333,0,1214.4133)" />
      <path
         id="path32"
         d="m 12887.1,789.551 402.5,1501.939 h 917.5 l -80.5,-300.56 h -437.2 l -76.3,-284.82 h 334.9 l -76.6,-285.72 h -334.8 l -88.5,-330.23 h 439.9 l -80.6,-300.609 h -920.3"
         style="fill:#ffffff;fill-opacity:1;fill-rule:nonzero;stroke:none"
         transform="matrix(0.13333333,0,0,-0.13333333,0,1214.4133)" />
      <path
         id="path33"
         d="m 14365,2291.49 h 480.3 l -321.9,-1201.33 h 379.5 l -80.6,-300.609 h -859.8 L 14365,2291.49"
         style="fill:#ffffff;fill-opacity:1;fill-rule:nonzero;stroke:none"
         transform="matrix(0.13333333,0,0,-0.13333333,0,1214.4133)" />
      <path
         id="path34"
         d="m 15381.6,2291.49 h 480.3 l -321.8,-1201.33 h 379.3 l -80.5,-300.609 h -859.8 l 402.5,1501.939"
         style="fill:#ffffff;fill-opacity:1;fill-rule:nonzero;stroke:none"
         transform="matrix(0.13333333,0,0,-0.13333333,0,1214.4133)" />
      <path
         id="path35"
         d="M 6754.92,1896.33 6738.99,1837 h -446.14 l 29.86,111.29 c 23.57,87.98 21.42,120.54 -41.88,120.54 -50.44,0 -95.72,-29.16 -118.94,-115.91 -30.18,-112.4 -10.01,-140.97 105.97,-205.06 186.05,-103.27 297.99,-187.98 335.82,-254.19 37.79,-66.16 36.99,-172.88 -2.44,-320.02 C 6572.56,1066.6 6536.02,987.73 6491.61,937.063 6389.46,820.371 6157.4,758.07 5956.97,758.07 c -269.41,0 -429.23,94.922 -451.35,210.52 -11.75,61.27 -2.5,148.16 27.65,260.67 l 26.3,98.39 h 446.17 l -48.96,-182.77 c -25.24,-94.28 -25.44,-132.68 50.06,-132.68 62.96,0 105.51,40.2 127.25,121.57 23.7,88.36 24.37,146.23 1.93,173.46 -23.12,27.17 -85.87,72.64 -188.24,136.41 -152.01,95.55 -329.2,159.71 -249.43,457.32 30.82,115.01 71.42,199.14 121.83,252.33 112.77,119.06 312.24,169.79 512.74,169.79 322.36,0 428.23,-110.84 447.17,-173.01 15.19,-49.83 6.81,-134.41 -25.17,-253.74"
         style="fill:#ffffff;fill-opacity:1;fill-rule:nonzero;stroke:none"
         transform="matrix(0.13333333,0,0,-0.13333333,0,1214.4133)" />
      <path
         id="path36"
         d="m 9652.77,1894.8 -180.99,77.37 205.39,480.45 180.99,-77.37 -205.39,-480.45"
         style="fill:#1a64b7;fill-opacity:1;fill-rule:nonzero;stroke:none"
         transform="matrix(0.13333333,0,0,-0.13333333,0,1214.4133)" />
      <path
         id="path37"
         d="m 13423.4,4959.03 c 0,-84.05 -23,-152.18 -51.4,-152.18 -28.4,0 -51.4,68.13 -51.4,152.18 0,84.05 23,152.18 51.4,152.18 28.4,0 51.4,-68.13 51.4,-152.18"
         style="fill:#ffffff;fill-opacity:1;fill-rule:nonzero;stroke:none"
         transform="matrix(0.13333333,0,0,-0.13333333,0,1214.4133)" />
      <path
         id="path38"
         d="m 14194.4,4528.92 -833.4,76.12 25.5,278.34 833.3,-76.13 -25.4,-278.33"
         style="fill:#ffffff;fill-opacity:1;fill-rule:nonzero;stroke:none"
         transform="matrix(0.13333333,0,0,-0.13333333,0,1214.4133)" />
      <path
         id="path39"
         d="m 14451.4,4554.07 h -324.7 v 167.77 h 324.7 v -167.77"
         style="fill:#ffffff;fill-opacity:1;fill-rule:nonzero;stroke:none"
         transform="matrix(0.13333333,0,0,-0.13333333,0,1214.4133)" />
      <path
         id="path40"
         d="m 13171.6,5194.62 c 0,-84.77 -111,-153.49 -247.9,-153.49 -136.9,0 -247.9,68.72 -247.9,153.49 0,84.78 111,153.5 247.9,153.5 136.9,0 247.9,-68.72 247.9,-153.5"
         style="fill:#ffffff;fill-opacity:1;fill-rule:nonzero;stroke:none"
         transform="matrix(0.13333333,0,0,-0.13333333,0,1214.4133)" />
      <path
         id="path41"
         d="m 12870.2,5275.05 c 0,-56.97 -55,-103.15 -122.9,-103.15 -67.9,0 -122.9,46.18 -122.9,103.15 0,56.96 55,103.14 122.9,103.14 67.9,0 122.9,-46.18 122.9,-103.14"
         style="fill:#ffffff;fill-opacity:1;fill-rule:nonzero;stroke:none"
         transform="matrix(0.13333333,0,0,-0.13333333,0,1214.4133)" />
      <path
         id="path42"
         d="m 14764.5,4613.61 c 0,-51.1 -30.9,-92.53 -68.9,-92.53 -38,0 -68.8,41.43 -68.8,92.53 0,51.11 30.8,92.54 68.8,92.54 38,0 68.9,-41.43 68.9,-92.54"
         style="fill:#ffffff;fill-opacity:1;fill-rule:nonzero;stroke:none"
         transform="matrix(0.13333333,0,0,-0.13333333,0,1214.4133)" />
      <path
         id="path43"
         d="m 15556.8,4507.02 -829.1,43.89 3.3,63.07 829.1,-43.89 -3.3,-63.07"
         style="fill:#ffffff;fill-opacity:1;fill-rule:nonzero;stroke:none"
         transform="matrix(0.13333333,0,0,-0.13333333,0,1214.4133)" />
      <path
         id="path44"
         d="m 15830.5,4471.4 -825.2,90.86 6.4,58.83 825.3,-90.85 -6.5,-58.84"
         style="fill:#ffffff;fill-opacity:1;fill-rule:nonzero;stroke:none"
         transform="matrix(0.13333333,0,0,-0.13333333,0,1214.4133)" />
      <path
         id="path45"
         d="m 14416.3,6008.32 c 0,-21 -11.5,-38.02 -25.7,-38.02 -14.2,0 -25.7,17.02 -25.7,38.02 0,21 11.5,38.02 25.7,38.02 14.2,0 25.7,-17.02 25.7,-38.02"
         style="fill:#ffffff;fill-opacity:1;fill-rule:nonzero;stroke:none"
         transform="matrix(0.13333333,0,0,-0.13333333,0,1214.4133)" />
      <path
         id="path46"
         d="m 14997.8,5759.4 -617,208.76 26.7,78.84 617,-208.76 -26.7,-78.84"
         style="fill:#ffffff;fill-opacity:1;fill-rule:nonzero;stroke:none"
         transform="matrix(0.13333333,0,0,-0.13333333,0,1214.4133)" />
      <path
         id="path47"
         d="m 15025.2,5750.39 c 0,-11.49 -6.1,-20.81 -13.6,-20.81 -7.5,0 -13.6,9.32 -13.6,20.81 0,11.49 6.1,20.81 13.6,20.81 7.5,0 13.6,-9.32 13.6,-20.81"
         style="fill:#ffffff;fill-opacity:1;fill-rule:nonzero;stroke:none"
         transform="matrix(0.13333333,0,0,-0.13333333,0,1214.4133)" />
      <path
         id="path48"
         d="m 15540.7,5478.73 c -5.6,-6.38 -13.4,-8.73 -17.3,-5.25 -3.9,3.47 -2.5,11.47 3.1,17.84 5.6,6.38 13.4,8.73 17.3,5.25 4,-3.47 2.6,-11.46 -3.1,-17.84"
         style="fill:#ffffff;fill-opacity:1;fill-rule:nonzero;stroke:none"
         transform="matrix(0.13333333,0,0,-0.13333333,0,1214.4133)" />
      <path
         id="path49"
         d="m 15709.5,5367.03 -178,110.36 17.1,27.51 177.9,-110.36 -17,-27.51"
         style="fill:#ffffff;fill-opacity:1;fill-rule:nonzero;stroke:none"
         transform="matrix(0.13333333,0,0,-0.13333333,0,1214.4133)" />
      <path
         id="path50"
         d="m 15717.2,5370.17 c -7.3,-4.32 -15.4,-4.16 -18.1,0.36 -2.6,4.52 1.1,11.69 8.5,16.02 7.3,4.32 15.4,4.16 18.1,-0.36 2.6,-4.52 -1.1,-11.69 -8.5,-16.02"
         style="fill:#ffffff;fill-opacity:1;fill-rule:nonzero;stroke:none"
         transform="matrix(0.13333333,0,0,-0.13333333,0,1214.4133)" />
    </g>
  </g>
</svg>
